<svg class="custom-icon" xmlns="http://www.w3.org/2000/svg" viewBox="0 0 100 100" style="height:100px;width:100px"><path class="inner-shape" fill="#292e31" d="M50 25.5c-13.53 0-24.5 10.97-24.5 24.5S36.47 74.5 50 74.5 74.5 63.53 74.5 50 63.53 25.5 50 25.5zM37.75 37.75h24.5c.437 0 .862.094 1.25.27L50 53.773l-13.5-15.75a3.01 3.01 0 0 1 1.25-.272zm-3.063 21.438V40.81c0-.063.003-.127.008-.19l8.98 10.476-8.882 8.88a3.033 3.033 0 0 1-.106-.79zM62.25 62.25h-24.5c-.27 0-.536-.036-.79-.106l8.713-8.714L50 58.477l4.327-5.048 8.714 8.714c-.254.07-.52.106-.79.106zm3.063-3.063c0 .27-.037.537-.106.792l-8.88-8.882 8.98-10.477c.003.064.006.128.006.192v18.375z"/></svg>