<svg class="custom-icon" xmlns="http://www.w3.org/2000/svg" viewBox="0 0 100 100" style="height:100px;width:100px"><path class="inner-shape" fill="#292e31" d="M50 25.5c-13.531 0-24.5 10.969-24.5 24.5S36.469 74.5 50 74.5 74.5 63.531 74.5 50 63.531 25.5 50 25.5zm14.55 39.05a20.52 20.52 0 0 1-8.437 5.105v-3.673c0-1.93-.662-3.349-1.986-4.258.83-.08 1.591-.191 2.285-.335a17.173 17.173 0 0 0 2.201-.623 10.953 10.953 0 0 0 2.081-.968c.614-.376 1.205-.862 1.771-1.46s1.041-1.276 1.423-2.034.686-1.666.91-2.727c.222-1.06.334-2.229.334-3.505 0-2.473-.805-4.577-2.416-6.316.733-1.914.654-3.996-.239-6.245l-.599-.071c-.414-.048-1.16.127-2.237.526-1.076.399-2.285 1.052-3.624 1.962a22.01 22.01 0 0 0-5.91-.79c-2.058 0-4.02.264-5.886.79a20.456 20.456 0 0 0-2.405-1.423c-.757-.375-1.363-.63-1.818-.766a6.25 6.25 0 0 0-1.268-.252c-.391-.032-.642-.04-.754-.024a1.46 1.46 0 0 0-.239.048c-.893 2.265-.973 4.347-.239 6.245-1.61 1.738-2.416 3.844-2.416 6.316 0 1.276.111 2.445.335 3.505.223 1.06.526 1.97.909 2.728.382.757.857 1.435 1.423 2.033s1.157 1.085 1.771 1.46c.614.375 1.308.698 2.081.969.774.271 1.507.478 2.201.622.694.144 1.456.256 2.285.335-1.308.894-1.962 2.313-1.962 4.259v3.743a20.52 20.52 0 0 1-8.675-5.177 20.52 20.52 0 0 1-4.412-6.541c-1.071-2.534-1.615-5.228-1.615-8.008s.544-5.474 1.616-8.008c1.036-2.45 2.52-4.65 4.411-6.541s4.092-3.375 6.542-4.412c2.534-1.072 5.228-1.615 8.008-1.615s5.474.543 8.008 1.615a20.515 20.515 0 0 1 6.541 4.412 20.52 20.52 0 0 1 4.412 6.541c1.071 2.535 1.615 5.229 1.615 8.008s-.544 5.474-1.616 8.008a20.528 20.528 0 0 1-4.41 6.542z"/></svg>