<svg class="custom-icon" xmlns="http://www.w3.org/2000/svg" viewBox="0 0 100 100" style="height:100px;width:100px"><path class="inner-shape" fill="#292e31" d="M50 25.5c-13.53 0-24.5 10.97-24.5 24.5S36.47 74.5 50 74.5 74.5 63.53 74.5 50 63.53 25.5 50 25.5zm14.55 39.05a20.52 20.52 0 0 1-8.437 5.105V65.98c0-1.93-.662-3.35-1.986-4.258.83-.08 1.59-.19 2.285-.335.694-.144 1.427-.352 2.2-.623a10.953 10.953 0 0 0 2.082-.97c.614-.374 1.205-.86 1.77-1.46s1.042-1.275 1.424-2.033.686-1.666.91-2.727c.222-1.06.334-2.23.334-3.505 0-2.473-.805-4.577-2.416-6.316.733-1.914.654-3.996-.24-6.245l-.598-.07c-.414-.048-1.16.127-2.237.526-1.075.4-2.284 1.052-3.623 1.962a22.01 22.01 0 0 0-5.91-.79c-2.058 0-4.02.264-5.886.79a20.456 20.456 0 0 0-2.404-1.423c-.757-.375-1.363-.63-1.818-.766a6.25 6.25 0 0 0-1.268-.253c-.39-.032-.642-.04-.754-.024a1.46 1.46 0 0 0-.24.048c-.892 2.266-.972 4.348-.238 6.246-1.61 1.738-2.416 3.844-2.416 6.316 0 1.276.11 2.445.335 3.505.223 1.06.526 1.97.91 2.728.38.757.856 1.435 1.422 2.033s1.156 1.085 1.77 1.46c.614.375 1.308.698 2.08.97.775.27 1.508.477 2.202.62.694.145 1.456.257 2.285.336-1.308.894-1.962 2.313-1.962 4.26v3.742a20.52 20.52 0 0 1-8.675-5.177 20.52 20.52 0 0 1-4.41-6.54C29.965 55.474 29.42 52.78 29.42 50s.544-5.474 1.616-8.008c1.035-2.45 2.52-4.65 4.41-6.54s4.092-3.376 6.542-4.413c2.534-1.073 5.228-1.616 8.008-1.616s5.474.543 8.008 1.615a20.515 20.515 0 0 1 6.54 4.41 20.52 20.52 0 0 1 4.413 6.542c1.072 2.535 1.616 5.23 1.616 8.008s-.544 5.474-1.616 8.008a20.528 20.528 0 0 1-4.41 6.542z"/></svg>