<svg class="custom-icon" xmlns="http://www.w3.org/2000/svg" viewBox="0 0 100 100" style="height:100px;width:100px"><path class="inner-shape" fill="#292e31" d="M66.27 25.5H33.73c-4.526 0-8.23 3.704-8.23 8.23v32.54c0 4.526 3.704 8.23 8.23 8.23h32.54c4.526 0 8.23-3.704 8.23-8.23V33.73c0-4.526-3.704-8.23-8.23-8.23zM43.874 65.313H37.75V43.874h6.125v21.438zm-3.063-24.5a3.062 3.062 0 1 1 0-6.125 3.062 3.062 0 0 1 0 6.124zm24.5 24.5h-6.124v-12.25a3.062 3.062 0 1 0-6.126 0v12.25h-6.124V43.874h6.124v3.803c1.264-1.735 3.195-3.803 5.36-3.803 3.806 0 6.891 3.428 6.891 7.656v13.782z"/></svg>