<svg class="custom-icon" xmlns="http://www.w3.org/2000/svg" viewBox="0 0 100 100" style="height:100px;width:100px"><path class="inner-shape" fill="#292e31" d="M74.5 34.714a20.016 20.016 0 0 1-5.773 1.592 10.138 10.138 0 0 0 4.42-5.595 20.061 20.061 0 0 1-6.383 2.454 10.012 10.012 0 0 0-7.338-3.193c-5.552 0-10.054 4.527-10.054 10.111 0 .793.089 1.564.26 2.305-8.355-.423-15.762-4.448-20.721-10.566a10.116 10.116 0 0 0-1.361 5.084c0 3.509 1.775 6.604 4.473 8.417a9.955 9.955 0 0 1-4.553-1.264l-.001.127c0 4.9 3.465 8.986 8.064 9.916a9.996 9.996 0 0 1-4.54.173c1.28 4.017 4.992 6.941 9.391 7.023a20.097 20.097 0 0 1-12.485 4.328c-.812 0-1.612-.048-2.398-.14a28.336 28.336 0 0 0 15.41 4.543c18.49 0 28.603-15.409 28.603-28.772 0-.438-.01-.874-.03-1.308a20.532 20.532 0 0 0 5.017-5.235z"/></svg>